<svg xmlns="http://www.w3.org/2000/svg" viewBox="0 0 64 64" role="img" aria-label="Globo terráqueo">
  <defs>
    <linearGradient id="ocean" x1="0" y1="0" x2="1" y2="1">
      <stop offset="0%" stop-color="#60a5fa" />
      <stop offset="100%" stop-color="#2563eb" />
    </linearGradient>
    <linearGradient id="land" x1="0" y1="0" x2="1" y2="1">
      <stop offset="0%" stop-color="#22c55e" />
      <stop offset="100%" stop-color="#16a34a" />
    </linearGradient>
  </defs>
  <circle cx="32" cy="32" r="28" fill="url(#ocean)" />
  <path fill="url(#land)" d="M18 22c4-6 10-9 16-9 2 0 4 0 6 1-2 2-4 3-6 3-4 0-8 2-10 5-2 2-4 3-6 2z" />
  <path fill="url(#land)" d="M42 36c3 0 6 2 8 5-3 6-9 9-16 9-1 0-2 0-3-1 2-2 4-3 7-4 2-1 3-3 4-5z" />
  <path fill="url(#land)" d="M16 36c1 0 3 1 4 2 2 2 4 3 6 3 2 0 3 1 4 2-2 2-5 3-8 3-4 0-7-2-9-5 1-3 2-4 3-5z" />
  <circle cx="32" cy="32" r="28" fill="none" stroke="#1f2937" stroke-width="2" opacity="0.25" />
</svg>
